<?xml version="1.0" standalone="no"?>
<!DOCTYPE svg PUBLIC "-//W3C//DTD SVG 20010904//EN"
 "http://www.w3.org/TR/2001/REC-SVG-20010904/DTD/svg10.dtd">
<svg version="1.0" xmlns="http://www.w3.org/2000/svg"
 width="144.000000pt" height="144.000000pt" viewBox="0 0 144.000000 144.000000"
 preserveAspectRatio="xMidYMid meet">
<metadata>
Created by potrace 1.11, written by Peter Selinger 2001-2013
</metadata>
<g transform="translate(0.000000,144.000000) scale(0.100000,-0.100000)"
fill="#000000" stroke="none">
<path d="M792 1291 c-7 -4 -32 -79 -57 -166 -25 -88 -55 -189 -65 -224 -11
-34 -22 -73 -25 -85 -2 -11 -43 -153 -90 -315 -65 -221 -83 -296 -75 -306 6
-8 32 -19 58 -25 76 -17 82 -19 90 -24 17 -10 31 12 53 84 12 41 23 80 25 85
2 11 129 450 210 729 46 156 53 191 42 201 -18 18 -153 54 -166 46z"/>
<path d="M319 1033 c-9 -10 -71 -70 -139 -133 -175 -162 -180 -168 -180 -182
0 -7 12 -23 26 -35 15 -12 85 -78 156 -145 182 -173 165 -166 238 -88 33 36
60 68 60 72 0 3 -30 32 -66 65 -36 32 -85 75 -107 96 l-42 38 40 35 c22 20 70
63 107 95 44 40 65 65 61 75 -9 24 -109 124 -124 124 -8 0 -22 -8 -30 -17z"/>
<path d="M1050 1023 c-14 -16 -40 -45 -59 -66 l-34 -38 50 -47 c27 -26 76 -71
109 -100 l59 -52 -36 -33 c-94 -84 -162 -142 -169 -145 -17 -6 4 -44 54 -97
29 -30 57 -55 63 -55 13 0 37 21 314 282 21 20 39 41 39 48 0 6 -32 41 -72 78
-39 37 -86 81 -103 97 -114 110 -165 155 -177 155 -7 0 -25 -12 -38 -27z"/>
</g>
</svg>
